<svg width="168" height="31" viewBox="0 0 168 31" fill="none" xmlns="http://www.w3.org/2000/svg">
<g opacity="0.2">
<path d="M0.0175781 0H3.2577V13.9761H0.0175781V0Z" fill="black"></path>
<path d="M5.24658 0H8.76468L13.5076 7.1927C14.1765 8.18539 14.3241 8.42921 14.8888 9.43062L14.9496 9.4132C14.8714 8.21152 14.854 7.90674 14.854 6.63539V0H18.0942V13.9761H14.4197L9.83314 7.04466C9.15558 6.00843 9.01659 5.78202 8.45196 4.78933L8.39115 4.82416C8.46933 6.00843 8.48671 6.30449 8.48671 7.60197V13.9761H5.24658V0Z" fill="black"></path>
<path d="M27.4411 0C29.6127 0 31.1242 0.583427 32.1492 1.80253C33.1395 3.00421 33.8258 5.0941 33.8258 6.99242C33.8258 9.0823 33.1743 10.9719 32.0016 12.3129C31.0374 13.4014 29.6127 13.9848 27.9275 13.9848H20.4136V0H27.4411ZM27.1631 11.0677C29.1176 11.0677 30.325 9.5264 30.325 7.02725C30.325 4.65871 29.022 2.96938 27.2152 2.96938H24.0098C23.8361 2.96938 23.7579 2.95197 23.5929 2.8736C23.6363 3.1 23.6537 3.15225 23.6537 3.37865V11.0677H27.1631Z" fill="black"></path>
<path d="M35.2329 0H46.5516V3.00421H38.4643V4.58034C38.4643 4.78933 38.447 4.85899 38.4035 5.06798C38.5773 5.01573 38.6207 4.98961 38.8031 4.98961H45.2313V7.99382H38.4643V10.5452C38.4643 10.7542 38.447 10.8239 38.4035 11.0329C38.5773 10.9806 38.6207 10.9545 38.8031 10.9545H46.5951V13.9587H35.2329V0Z" fill="black"></path>
<path d="M54.9345 0C56.8716 0 57.9401 0.191573 58.7219 0.661798C59.8077 1.3236 60.5808 2.93455 60.5808 4.55421C60.5808 6.32191 59.912 7.75 58.7827 8.40309C58.027 8.83848 57.0367 9.02135 55.4383 9.02135H51.7986C51.6162 9.02135 51.5641 9.00393 51.399 8.94298C51.4425 9.15197 51.4599 9.20421 51.4599 9.43062V13.9761H48.2197V0H54.9345ZM51.8073 2.96938C51.6249 2.96938 51.5728 2.95197 51.4077 2.89101C51.4512 3.1 51.4685 3.15225 51.4685 3.37865V5.50337C51.4685 5.72978 51.4512 5.78202 51.4077 5.99101C51.5815 5.93876 51.6249 5.91264 51.8073 5.91264H55.1256C56.611 5.91264 57.2452 5.47725 57.2452 4.44972C57.2452 3.41348 56.6371 2.96938 55.2472 2.96938H51.8073Z" fill="black"></path>
<path d="M62.1011 0H73.4198V3.00421H65.3325V4.58034C65.3325 4.78933 65.3151 4.85899 65.2717 5.06798C65.4454 5.01573 65.4889 4.98961 65.6713 4.98961H72.0994V7.99382H65.3325V10.5452C65.3325 10.7542 65.3151 10.8239 65.2717 11.0329C65.4454 10.9806 65.4889 10.9545 65.6713 10.9545H73.4632V13.9587H62.1011V0Z" fill="black"></path>
<path d="M78.6142 0L83.3571 7.1927C84.026 8.18539 84.1736 8.42921 84.7383 9.43062L84.7991 9.4132C84.7209 8.21152 84.7035 7.90674 84.7035 6.63539V0H87.9436V13.9761H84.2605L79.674 7.04466C78.9964 6.00843 78.8574 5.78202 78.2928 4.78933L78.232 4.82416C78.3101 6.00843 78.3275 6.30449 78.3275 7.60197V13.9761H75.0874V0H78.6142Z" fill="black"></path>
<path d="M97.2906 0C99.4623 0 100.974 0.583427 101.999 1.80253C102.989 3.00421 103.675 5.0941 103.675 6.99242C103.675 9.0823 103.024 10.9719 101.851 12.3129C100.887 13.4014 99.4623 13.9848 97.777 13.9848H90.2544V0H97.2906ZM97.0126 11.0677C98.9671 11.0677 100.175 9.5264 100.175 7.02725C100.175 4.65871 98.8716 2.96938 97.0647 2.96938H93.8594C93.6856 2.96938 93.6074 2.95197 93.4424 2.8736C93.4858 3.1 93.5032 3.15225 93.5032 3.37865V11.0677H97.0126Z" fill="black"></path>
<path d="M105.074 0H116.401V3.00421H108.314V4.58034C108.314 4.78933 108.296 4.85899 108.253 5.06798C108.427 5.01573 108.47 4.98961 108.653 4.98961H115.081V7.99382H108.314V10.5452C108.314 10.7542 108.296 10.8239 108.253 11.0329C108.427 10.9806 108.47 10.9545 108.653 10.9545H116.445V13.9587H105.074V0Z" fill="black"></path>
<path d="M118.069 0H121.587L126.33 7.1927C126.999 8.18539 127.146 8.42921 127.711 9.43062L127.772 9.4132C127.694 8.21152 127.676 7.90674 127.676 6.63539V0H130.916V13.9761H127.242L122.655 7.04466C121.978 6.00843 121.839 5.78202 121.274 4.78933L121.213 4.82416C121.292 6.00843 121.309 6.30449 121.309 7.60197V13.9761H118.069V0Z" fill="black"></path>
<path d="M132.289 0H144.294V3.06517H140.263C140.081 3.06517 140.029 3.04775 139.864 2.9868C139.907 3.19579 139.925 3.24803 139.925 3.47444V13.9761H136.685V3.47444C136.685 3.24803 136.702 3.19579 136.745 2.9868C136.572 3.03904 136.528 3.06517 136.346 3.06517H132.289V0Z" fill="black"></path>
<path d="M0 16.7188H8.82565C11.2753 16.7188 12.5696 17.8856 12.5696 20.0626C12.5696 21.4732 12.1353 22.257 11.006 22.9188V22.971C12.448 23.7982 13.0995 24.9041 13.0995 26.5761C13.0995 27.8387 12.587 29.023 11.6575 29.8067C10.9278 30.4423 10.1895 30.6862 8.91251 30.6862H0V16.7188ZM3.5789 19.6881C3.39648 19.6881 3.34436 19.6707 3.17932 19.6098C3.22275 19.8188 3.24012 19.871 3.24012 20.0974V21.3949C3.24012 21.6213 3.22275 21.6735 3.17932 21.8825C3.35305 21.8303 3.41386 21.8041 3.5789 21.8041H7.7485C8.61717 21.8041 8.93857 21.5255 8.93857 20.8114C8.93857 20.08 8.48687 19.6881 7.68769 19.6881H3.5789ZM3.24012 27.2814C3.24012 27.5078 3.22275 27.56 3.17932 27.769C3.35305 27.7168 3.39648 27.6907 3.5789 27.6907H7.75719C8.90383 27.6907 9.38159 27.2379 9.38159 26.1668C9.38159 25.1305 8.84302 24.6255 7.75719 24.6255H3.24012V27.2814Z" fill="black"></path>
<path d="M28.7618 23.4861C28.7618 28.2928 26.1471 30.9835 21.465 30.9835C19.2846 30.9835 17.6428 30.4785 16.4354 29.4074C14.976 28.1099 14.1855 26.142 14.1855 23.7734C14.1855 19.1844 16.9913 16.4414 21.6821 16.4414C26.0168 16.4414 28.7618 19.1583 28.7618 23.4861ZM17.8861 23.5819C17.8861 26.3858 19.3454 28.2754 21.5084 28.2754C23.7061 28.2754 25.0526 26.5687 25.0526 23.7473C25.0526 20.8737 23.7496 19.2018 21.491 19.2018C19.2499 19.2018 17.8861 20.8563 17.8861 23.5819Z" fill="black"></path>
<path d="M44.71 23.4861C44.71 28.2928 42.0953 30.9835 37.4132 30.9835C35.2329 30.9835 33.5911 30.4785 32.3836 29.4074C30.9243 28.1099 30.1338 26.142 30.1338 23.7734C30.1338 19.1844 32.9396 16.4414 37.6304 16.4414C41.9737 16.4414 44.71 19.1583 44.71 23.4861ZM33.843 23.5819C33.843 26.3858 35.3024 28.2754 37.4653 28.2754C39.6631 28.2754 41.0095 26.5687 41.0095 23.7473C41.0095 20.8737 39.7065 19.2018 37.448 19.2018C35.1981 19.2018 33.843 20.8563 33.843 23.5819Z" fill="black"></path>
<path d="M45.3965 16.7188H57.4015V19.7839H53.3708C53.1884 19.7839 53.1363 19.7665 52.9713 19.7055C53.0147 19.9145 53.0321 19.9668 53.0321 20.1932V30.6949H49.7919V20.1932C49.7919 19.9668 49.8093 19.9145 49.8527 19.7055C49.679 19.7578 49.6356 19.7839 49.4532 19.7839H45.3965V16.7188Z" fill="black"></path>
<path d="M61.1715 25.6456C61.4668 27.4307 62.4571 28.197 64.4203 28.197C66.1229 28.197 66.9568 27.7616 66.9568 26.8821C66.9568 26.1333 66.3401 25.663 65.0805 25.4715L62.5701 25.0796C59.6079 24.592 58.079 23.2161 58.079 21.0043C58.079 19.6285 58.9738 18.1481 60.2333 17.4167C61.3365 16.781 62.6917 16.4414 64.1945 16.4414C66.3314 16.4414 68.1556 17.1903 69.3196 18.5052C69.9277 19.2018 70.1535 19.7069 70.4054 20.8389L66.9221 21.7445C66.4617 19.6981 65.8102 19.1321 63.9339 19.1321C62.4658 19.1321 61.6232 19.6807 61.6232 20.656C61.6232 21.4223 62.1792 21.8055 63.7254 22.0667L65.9578 22.4411C67.2435 22.6675 68.4683 23.1378 69.224 23.7212C70.0145 24.322 70.5531 25.5237 70.5531 26.6296C70.5531 27.9097 69.8842 29.2246 68.9113 29.9212C67.8081 30.7136 66.618 30.9922 64.3856 30.9922C61.8577 30.9922 60.7806 30.7484 59.7121 29.9386C58.6089 29.0939 58.0269 28.1709 57.6187 26.5774L61.1715 25.6456Z" fill="black"></path>
<path d="M71.1787 16.7188H83.1837V19.7839H79.1531C78.9706 19.7839 78.9185 19.7665 78.7535 19.7055C78.7969 19.9145 78.8143 19.9668 78.8143 20.1932V30.6949H75.5742V20.1932C75.5742 19.9668 75.5915 19.9145 75.635 19.7055C75.4612 19.7578 75.4178 19.7839 75.2354 19.7839H71.1787V16.7188Z" fill="black"></path>
<path d="M84.4951 16.7188H92.8256C94.5716 16.7188 95.614 17.1106 96.3872 18.0685C96.9952 18.8173 97.3166 19.8536 97.3166 21.0553C97.3166 23.2497 96.4219 24.5471 94.5108 25.1305C94.8236 25.5398 94.9017 25.653 95.1797 26.1232L97.9681 30.6862H93.8941L90.7235 25.444H88.074C87.8916 25.444 87.8395 25.4266 87.6744 25.3657C87.7179 25.5746 87.7352 25.6269 87.7352 25.8533V30.6862H84.4951V16.7188ZM88.074 19.6881C87.9177 19.6881 87.8395 19.6707 87.6744 19.6098C87.7179 19.8188 87.7352 19.871 87.7352 20.0974V22.0741C87.7352 22.2831 87.7179 22.3527 87.6744 22.5617C87.8482 22.5095 87.8916 22.4834 88.074 22.4834H92.0525C93.0428 22.4834 93.3989 22.4311 93.7117 22.2047C94.0504 21.9609 94.2416 21.569 94.2416 21.0814C94.2416 20.0452 93.842 19.6881 92.678 19.6881H88.074Z" fill="black"></path>
<path d="M103.501 16.7188H107.341L112.423 30.6949H108.861L107.932 27.9345H102.833L101.903 30.6949H98.3589L103.501 16.7188ZM106.055 25.3657C106.585 25.3657 106.689 25.3657 107.158 25.4179C106.941 24.9303 106.898 24.7996 106.698 24.2162L106.125 22.4834C105.769 21.4297 105.69 21.1685 105.43 20.1322H105.369C105.108 21.1685 105.013 21.4471 104.674 22.4834L104.101 24.2162C103.901 24.8171 103.849 24.9303 103.64 25.4179C104.101 25.3657 104.214 25.3657 104.744 25.3657H106.055Z" fill="black"></path>
<path d="M113.491 16.7188H120.197C122.134 16.7188 123.203 16.9103 123.993 17.3805C125.079 18.0423 125.852 19.6533 125.852 21.273C125.852 23.0407 125.183 24.4688 124.054 25.1218C123.298 25.5572 122.308 25.7401 120.71 25.7401H117.07C116.888 25.7401 116.836 25.7227 116.671 25.6617C116.714 25.8707 116.731 25.923 116.731 26.1494V30.6949H113.491V16.7188ZM117.061 19.6881C116.879 19.6881 116.827 19.6707 116.662 19.6098C116.705 19.8187 116.723 19.871 116.723 20.0974V22.2221C116.723 22.4485 116.705 22.5008 116.662 22.7098C116.836 22.6575 116.879 22.6314 117.061 22.6314H120.38C121.865 22.6314 122.499 22.196 122.499 21.1685C122.499 20.1322 121.891 19.6881 120.501 19.6881H117.061Z" fill="black"></path>
<path d="M127.364 16.7188H134.07C136.007 16.7188 137.075 16.9103 137.866 17.3805C138.952 18.0423 139.725 19.6533 139.725 21.273C139.725 23.0407 139.056 24.4688 137.927 25.1218C137.171 25.5572 136.181 25.7401 134.582 25.7401H130.943C130.76 25.7401 130.708 25.7227 130.543 25.6617C130.587 25.8707 130.604 25.923 130.604 26.1494V30.6949H127.364V16.7188ZM130.943 19.6881C130.76 19.6881 130.708 19.6707 130.543 19.6098C130.587 19.8187 130.604 19.871 130.604 20.0974V22.2221C130.604 22.4485 130.587 22.5008 130.543 22.7098C130.717 22.6575 130.76 22.6314 130.943 22.6314H134.261C135.746 22.6314 136.381 22.196 136.381 21.1685C136.381 20.1322 135.772 19.6881 134.383 19.6881H130.943Z" fill="black"></path>
<path d="M152.555 16.7188V19.723H144.468V21.2991C144.468 21.5081 144.45 21.5777 144.407 21.7867C144.581 21.7345 144.624 21.7084 144.806 21.7084H151.235V24.7126H144.468V27.264C144.468 27.473 144.45 27.5426 144.407 27.7516C144.581 27.6994 144.624 27.6732 144.806 27.6732H152.598V30.6775H141.228V16.7188H152.555Z" fill="black"></path>
<path d="M161.563 16.7188C163.735 16.7188 165.246 17.3022 166.271 18.5213C167.262 19.723 167.948 21.8128 167.948 23.7112C167.948 25.8011 167.296 27.6907 166.124 29.0317C165.159 30.1202 163.735 30.7036 162.05 30.7036H154.536V16.7188H161.563ZM161.276 27.7864C163.231 27.7864 164.438 26.2452 164.438 23.746C164.438 21.3775 163.135 19.6881 161.329 19.6881H158.123C157.95 19.6881 157.871 19.6707 157.706 19.5923C157.75 19.8187 157.767 19.871 157.767 20.0974V27.7864H161.276Z" fill="black"></path>
<path d="M155.318 0.279297H152.06V14.2119H155.318V0.279297Z" fill="black"></path>
<path d="M160.645 8.87875V5.61328H146.746V8.87875H160.645Z" fill="black"></path>
</g>
</svg>
